<?xml version="1.0" encoding="UTF-8"?>
<!DOCTYPE svg PUBLIC "-//W3C//DTD SVG 1.1//EN" "http://www.w3.org/Graphics/SVG/1.1/DTD/svg11.dtd">
<svg version="1.1" xmlns="http://www.w3.org/2000/svg" xmlns:xlink="http://www.w3.org/1999/xlink" x="0" y="0" width="500" height="500" viewBox="0, 0, 500, 500">
  <g id="Layer_2_1_">
    <path d="M165.3,248.75 C164.5,262.65 175.2,274.55 189.1,275.35 C189.6,275.35 190.1,275.35 190.6,275.35 C204.6,275.35 215.9,264.05 215.8,250.05 C215.8,236.05 204.5,224.75 190.5,224.85 C177.1,224.85 166,235.35 165.3,248.75 z" fill="#000000"/>
    <path d="M71.1,242.25 C66.6,241.95 62.7,245.45 62.5,249.95 C62.3,254.45 65.7,258.35 70.2,258.55 C74.7,258.85 78.5,255.35 78.8,250.85 C79.1,246.35 75.6,242.55 71.1,242.25 C71.1,242.25 71.1,242.25 71.1,242.25 z" fill="#000000"/>
    <path d="M163.7,102.15 C167.7,100.15 169.3,95.15 167.3,91.15 C165.3,87.15 160.3,85.55 156.3,87.55 C152.3,89.55 150.7,94.45 152.7,98.45 C154.7,102.55 159.6,104.25 163.7,102.15 C163.6,102.15 163.7,102.15 163.7,102.15 z" fill="#000000"/>
    <path d="M189.3,146.85 C195.5,143.75 198,136.15 194.9,129.95 C191.8,123.75 184.2,121.25 178,124.35 C171.8,127.45 169.3,135.05 172.4,141.25 C175.5,147.45 183.1,149.95 189.3,146.85 z" fill="#000000"/>
    <path d="M103.1,177.55 C107.9,180.65 114.3,179.35 117.5,174.55 C120.6,169.75 119.3,163.35 114.5,160.15 C109.7,157.05 103.3,158.35 100.1,163.15 C100.1,163.15 100.1,163.15 100.1,163.15 C96.9,167.95 98.3,174.45 103.1,177.55 z" fill="#000000"/>
    <path d="M118.4,237.75 C111.4,237.35 105.5,242.65 105.1,249.65 C104.7,256.65 110,262.55 117,262.95 C124,263.35 129.9,258.05 130.3,251.05 C130.3,251.05 130.3,251.05 130.3,251.05 C130.7,244.15 125.4,238.15 118.4,237.75 z" fill="#000000"/>
    <path d="M104.5,322.45 C99.4,325.05 97.3,331.25 99.9,336.45 C102.5,341.55 108.7,343.65 113.9,341.05 C119,338.45 121.1,332.25 118.5,327.05 C118.5,327.05 118.5,327.05 118.5,327.05 C115.9,321.95 109.6,319.85 104.5,322.45 C104.5,322.45 104.5,322.45 104.5,322.45 z" fill="#000000"/>
    <path d="M153.5,211.65 C160.4,216.15 169.6,214.25 174,207.35 C178.5,200.45 176.6,191.25 169.7,186.85 C162.8,182.35 153.6,184.25 149.2,191.15 C144.7,197.95 146.6,207.15 153.5,211.65 C153.5,211.65 153.5,211.65 153.5,211.65 z" fill="#000000"/>
    <path d="M309,145.85 C314.8,149.65 322.7,148.05 326.5,142.25 C330.3,136.45 328.7,128.55 322.9,124.75 C317.1,120.95 309.2,122.55 305.4,128.35 C305.4,128.35 305.4,128.35 305.4,128.35 C301.5,134.25 303.1,142.05 309,145.85 C309,145.85 309,145.85 309,145.85 z" fill="#000000"/>
    <path d="M334.8,101.35 C338.6,103.85 343.6,102.75 346.1,98.95 C348.6,95.15 347.5,90.15 343.7,87.65 C339.9,85.15 334.9,86.25 332.4,89.95 C330,93.75 331.1,98.85 334.8,101.35 C334.8,101.35 334.8,101.35 334.8,101.35 z" fill="#000000"/>
    <path d="M310.9,224.65 C297,223.85 285,234.55 284.3,248.45 C283.5,262.35 294.2,274.35 308.1,275.05 C308.6,275.05 309.1,275.05 309.5,275.05 C323.4,275.05 334.7,263.75 334.7,249.75 C334.8,236.45 324.3,225.35 310.9,224.65 L310.9,224.65 z" fill="#000000"/>
    <path d="M197.6,209.85 C201.9,218.35 210.6,223.75 220.2,223.75 C234.1,223.75 245.4,212.45 245.4,198.45 C245.4,194.55 244.5,190.65 242.7,187.05 C236.4,174.55 221.2,169.55 208.8,175.85 C196.3,182.25 191.3,197.45 197.6,209.85 L197.6,209.85 z" fill="#000000"/>
    <path d="M395.5,177.55 C400.6,174.95 402.6,168.65 400,163.55 C397.4,158.45 391.1,156.45 386,159.05 C380.9,161.65 378.9,167.85 381.4,172.95 C384.1,178.05 390.3,180.15 395.5,177.55 C395.5,177.55 395.5,177.55 395.5,177.55 z" fill="#000000"/>
    <path d="M331.5,185.55 C324.2,189.25 321.2,198.15 324.9,205.45 C328.6,212.75 337.5,215.75 344.8,212.05 C352.1,208.35 355.1,199.45 351.4,192.15 C347.7,184.85 338.8,181.95 331.5,185.55 z" fill="#000000"/>
    <path d="M249,97.55 C254.7,97.85 259.6,93.45 260,87.75 C260.4,82.05 255.9,77.15 250.2,76.75 C244.5,76.45 239.6,80.75 239.2,86.45 C238.9,92.25 243.3,97.15 249,97.55 C249,97.55 249,97.55 249,97.55 z" fill="#000000"/>
    <path d="M248.9,162.85 C257.1,163.35 264.1,157.05 264.5,148.85 C265,140.65 258.7,133.65 250.5,133.25 C242.3,132.75 235.3,139.05 234.9,147.25 C234.5,155.45 240.7,162.45 248.9,162.85 C248.9,162.85 248.9,162.85 248.9,162.85 z" fill="#000000"/>
    <path d="M168.5,314.45 C175.8,310.75 178.8,301.85 175.1,294.55 C171.4,287.25 162.5,284.25 155.2,287.95 C147.9,291.65 144.9,300.55 148.6,307.85 C152.3,315.15 161.2,318.15 168.5,314.45 z" fill="#000000"/>
    <path d="M258.5,184.55 C250.9,196.25 254.1,211.85 265.8,219.45 C277.5,227.05 293.1,223.85 300.7,212.15 C308.3,200.45 305.1,184.85 293.4,177.25 C289.3,174.55 284.5,173.15 279.6,173.15 C271.1,173.15 263.2,177.45 258.5,184.55 z" fill="#000000"/>
    <path d="M302.4,290.15 C296.1,277.65 280.9,272.65 268.5,278.95 C256,285.25 251,300.45 257.3,312.85 C263.6,325.35 278.8,330.35 291.2,324.05 C291.2,324.05 291.2,324.05 291.2,324.05 C303.6,317.85 308.7,302.85 302.5,290.35 C302.5,290.25 302.5,290.25 302.4,290.15 z" fill="#000000"/>
    <path d="M346.5,288.35 C339.6,283.85 330.4,285.75 326,292.65 C321.5,299.55 323.4,308.75 330.3,313.15 C337.2,317.65 346.4,315.75 350.8,308.85 C355.3,302.05 353.4,292.85 346.5,288.35 C346.5,288.35 346.5,288.35 346.5,288.35 z" fill="#000000"/>
    <path d="M394.9,250.45 C395.3,243.45 390,237.55 383,237.15 C376,236.75 370.1,242.05 369.7,249.05 C369.3,256.05 374.6,261.95 381.6,262.35 C381.6,262.35 381.6,262.35 381.6,262.35 C388.5,262.75 394.5,257.35 394.9,250.45 z" fill="#000000"/>
    <path d="M429.8,241.45 C425.3,241.15 421.4,244.65 421.2,249.15 C421,253.65 424.4,257.55 428.9,257.75 C433.4,258.05 437.2,254.55 437.5,250.05 C437.7,245.55 434.3,241.75 429.8,241.45 z" fill="#000000"/>
    <path d="M396.9,322.45 C392.1,319.35 385.7,320.65 382.5,325.45 C379.4,330.25 380.7,336.65 385.5,339.85 C390.3,342.95 396.7,341.65 399.9,336.85 C403.1,332.05 401.7,325.55 396.9,322.45 C396.9,322.45 396.9,322.45 396.9,322.45 z" fill="#000000"/>
    <path d="M165.1,398.65 C161.3,396.15 156.3,397.25 153.8,400.95 C151.3,404.75 152.4,409.75 156.1,412.25 C159.9,414.75 164.9,413.65 167.4,409.95 C167.4,409.95 167.4,409.95 167.4,409.95 C170,406.25 168.9,401.15 165.1,398.65 z" fill="#000000"/>
    <path d="M336.3,397.85 C332.3,399.85 330.7,404.85 332.7,408.85 C334.7,412.85 339.7,414.45 343.7,412.45 C347.7,410.45 349.3,405.55 347.3,401.55 C345.3,397.45 340.4,395.75 336.3,397.85 C336.4,397.85 336.3,397.85 336.3,397.85 z" fill="#000000"/>
    <path d="M241.5,315.45 C249.1,303.75 245.9,288.15 234.2,280.45 C222.5,272.85 206.9,276.05 199.2,287.75 C191.5,299.45 194.8,315.05 206.5,322.75 C210.6,325.45 215.4,326.85 220.3,326.85 C228.9,326.95 236.8,322.65 241.5,315.45 z" fill="#000000"/>
    <path d="M191,354.15 C185.2,350.35 177.3,351.95 173.5,357.75 C169.7,363.55 171.3,371.45 177.1,375.25 C182.9,379.05 190.8,377.45 194.6,371.65 C194.6,371.65 194.6,371.65 194.6,371.65 C198.5,365.85 196.9,357.95 191,354.15 z" fill="#000000"/>
    <path d="M249.9,402.45 C244.2,402.15 239.3,406.55 238.9,412.25 C238.5,417.95 243,422.85 248.7,423.25 C254.4,423.55 259.3,419.25 259.7,413.55 C260,407.75 255.6,402.85 249.9,402.45 C249.9,402.45 249.9,402.45 249.9,402.45 z" fill="#000000"/>
    <path d="M250,337.15 C241.8,336.65 234.8,342.95 234.4,351.15 C233.9,359.35 240.2,366.35 248.4,366.75 C256.6,367.15 263.6,360.95 264,352.75 C264.5,344.65 258.2,337.55 250,337.15 C250,337.15 250,337.15 250,337.15 z" fill="#000000"/>
    <path d="M310.7,353.15 C304.5,356.35 302,363.95 305.2,370.15 C308.4,376.35 316,378.85 322.2,375.65 C328.4,372.55 330.9,364.95 327.8,358.75 C324.6,352.55 317,349.95 310.7,353.15 C310.7,353.15 310.7,353.15 310.7,353.15 z" fill="#000000"/>
  </g>
  <g id="Layer_2"/>
  <g id="Layer_3"/>
</svg>
