<?xml version="1.0" encoding="UTF-8"?>
<!DOCTYPE svg PUBLIC "-//W3C//DTD SVG 1.1//EN" "http://www.w3.org/Graphics/SVG/1.1/DTD/svg11.dtd">
<svg version="1.1" xmlns="http://www.w3.org/2000/svg" xmlns:xlink="http://www.w3.org/1999/xlink" x="0" y="0" width="375" height="346.5" viewBox="0, 0, 375, 346.5">
  <g id="Layer_2">
    <path d="M-39.5,-23.25 L394.5,-23.25 L394.5,389.25 L-39.5,389.25 z" fill="#000000"/>
  </g>
  <g id="Layer_2_1_">
    <path d="M102.8,172 C102,185.9 112.7,197.8 126.6,198.6 C127.1,198.6 127.6,198.6 128.1,198.6 C142.1,198.6 153.4,187.3 153.3,173.3 C153.3,159.3 142,148 128,148.1 C114.6,148.1 103.5,158.6 102.8,172 z" fill="#FFFFFF"/>
    <path d="M8.6,165.5 C4.1,165.2 0.2,168.7 0,173.2 C-0.2,177.7 3.2,181.6 7.7,181.8 C12.2,182.1 16,178.6 16.3,174.1 C16.6,169.6 13.1,165.8 8.6,165.5 C8.6,165.5 8.6,165.5 8.6,165.5 z" fill="#FFFFFF"/>
    <path d="M101.2,25.4 C105.2,23.4 106.8,18.4 104.8,14.4 C102.8,10.4 97.8,8.8 93.8,10.8 C89.8,12.8 88.2,17.7 90.2,21.7 C92.2,25.8 97.1,27.5 101.2,25.4 C101.1,25.4 101.2,25.4 101.2,25.4 z" fill="#FFFFFF"/>
    <path d="M126.8,70.1 C133,67 135.5,59.4 132.4,53.2 C129.3,47 121.7,44.5 115.5,47.6 C109.3,50.7 106.8,58.3 109.9,64.5 C113,70.7 120.6,73.2 126.8,70.1 z" fill="#FFFFFF"/>
    <path d="M40.6,100.8 C45.4,103.9 51.8,102.6 55,97.8 C58.1,93 56.8,86.6 52,83.4 C47.2,80.3 40.8,81.6 37.6,86.4 C37.6,86.4 37.6,86.4 37.6,86.4 C34.4,91.2 35.8,97.7 40.6,100.8 z" fill="#FFFFFF"/>
    <path d="M55.9,161 C48.9,160.6 43,165.9 42.6,172.9 C42.2,179.9 47.5,185.8 54.5,186.2 C61.5,186.6 67.4,181.3 67.8,174.3 C67.8,174.3 67.8,174.3 67.8,174.3 C68.2,167.4 62.9,161.4 55.9,161 z" fill="#FFFFFF"/>
    <path d="M42,245.7 C36.9,248.3 34.8,254.5 37.4,259.7 C40,264.8 46.2,266.9 51.4,264.3 C56.5,261.7 58.6,255.5 56,250.3 C56,250.3 56,250.3 56,250.3 C53.4,245.2 47.1,243.1 42,245.7 C42,245.7 42,245.7 42,245.7 z" fill="#FFFFFF"/>
    <path d="M91,134.9 C97.9,139.4 107.1,137.5 111.5,130.6 C116,123.7 114.1,114.5 107.2,110.1 C100.3,105.6 91.1,107.5 86.7,114.4 C82.2,121.2 84.1,130.4 91,134.9 C91,134.9 91,134.9 91,134.9 z" fill="#FFFFFF"/>
    <path d="M246.5,69.1 C252.3,72.9 260.2,71.3 264,65.5 C267.8,59.7 266.2,51.8 260.4,48 C254.6,44.2 246.7,45.8 242.9,51.6 C242.9,51.6 242.9,51.6 242.9,51.6 C239,57.5 240.6,65.3 246.5,69.1 C246.5,69.1 246.5,69.1 246.5,69.1 z" fill="#FFFFFF"/>
    <path d="M272.3,24.6 C276.1,27.1 281.1,26 283.6,22.2 C286.1,18.4 285,13.4 281.2,10.9 C277.4,8.4 272.4,9.5 269.9,13.2 C267.5,17 268.6,22.1 272.3,24.6 C272.3,24.6 272.3,24.6 272.3,24.6 z" fill="#FFFFFF"/>
    <path d="M248.4,147.9 C234.5,147.1 222.5,157.8 221.8,171.7 C221,185.6 231.7,197.6 245.6,198.3 C246.1,198.3 246.6,198.3 247,198.3 C260.9,198.3 272.2,187 272.2,173 C272.3,159.7 261.8,148.6 248.4,147.9 L248.4,147.9 z" fill="#FFFFFF"/>
    <path d="M135.1,133.1 C139.4,141.6 148.1,147 157.7,147 C171.6,147 182.9,135.7 182.9,121.7 C182.9,117.8 182,113.9 180.2,110.3 C173.9,97.8 158.7,92.8 146.3,99.1 C133.8,105.5 128.8,120.7 135.1,133.1 L135.1,133.1 z" fill="#FFFFFF"/>
    <path d="M333,100.8 C338.1,98.2 340.1,91.9 337.5,86.8 C334.9,81.7 328.6,79.7 323.5,82.3 C318.4,84.9 316.4,91.1 318.9,96.2 C321.6,101.3 327.8,103.4 333,100.8 C333,100.8 333,100.8 333,100.8 z" fill="#FFFFFF"/>
    <path d="M269,108.8 C261.7,112.5 258.7,121.4 262.4,128.7 C266.1,136 275,139 282.3,135.3 C289.6,131.6 292.6,122.7 288.9,115.4 C285.2,108.1 276.3,105.2 269,108.8 z" fill="#FFFFFF"/>
    <path d="M186.5,20.8 C192.2,21.1 197.1,16.7 197.5,11 C197.9,5.3 193.4,0.4 187.7,0 C182,-0.3 177.1,4 176.7,9.7 C176.4,15.5 180.8,20.4 186.5,20.8 C186.5,20.8 186.5,20.8 186.5,20.8 z" fill="#FFFFFF"/>
    <path d="M186.4,86.1 C194.6,86.6 201.6,80.3 202,72.1 C202.5,63.9 196.2,56.9 188,56.5 C179.8,56 172.8,62.3 172.4,70.5 C172,78.7 178.2,85.7 186.4,86.1 C186.4,86.1 186.4,86.1 186.4,86.1 z" fill="#FFFFFF"/>
    <path d="M106,237.7 C113.3,234 116.3,225.1 112.6,217.8 C108.9,210.5 100,207.5 92.7,211.2 C85.4,214.9 82.4,223.8 86.1,231.1 C89.8,238.4 98.7,241.4 106,237.7 z" fill="#FFFFFF"/>
    <path d="M196,107.8 C188.4,119.5 191.6,135.1 203.3,142.7 C215,150.3 230.6,147.1 238.2,135.4 C245.8,123.7 242.6,108.1 230.9,100.5 C226.8,97.8 222,96.4 217.1,96.4 C208.6,96.4 200.7,100.7 196,107.8 z" fill="#FFFFFF"/>
    <path d="M239.9,213.4 C233.6,200.9 218.4,195.9 206,202.2 C193.5,208.5 188.5,223.7 194.8,236.1 C201.1,248.6 216.3,253.6 228.7,247.3 C228.7,247.3 228.7,247.3 228.7,247.3 C241.1,241.1 246.2,226.1 240,213.6 C240,213.5 240,213.5 239.9,213.4 z" fill="#FFFFFF"/>
    <path d="M284,211.6 C277.1,207.1 267.9,209 263.5,215.9 C259,222.8 260.9,232 267.8,236.4 C274.7,240.9 283.9,239 288.3,232.1 C292.8,225.3 290.9,216.1 284,211.6 C284,211.6 284,211.6 284,211.6 z" fill="#FFFFFF"/>
    <path d="M332.4,173.7 C332.8,166.7 327.5,160.8 320.5,160.4 C313.5,160 307.6,165.3 307.2,172.3 C306.8,179.3 312.1,185.2 319.1,185.6 C319.1,185.6 319.1,185.6 319.1,185.6 C326,186 332,180.6 332.4,173.7 z" fill="#FFFFFF"/>
    <path d="M367.3,164.7 C362.8,164.4 358.9,167.9 358.7,172.4 C358.5,176.9 361.9,180.8 366.4,181 C370.9,181.3 374.7,177.8 375,173.3 C375.2,168.8 371.8,165 367.3,164.7 z" fill="#FFFFFF"/>
    <path d="M334.4,245.7 C329.6,242.6 323.2,243.9 320,248.7 C316.9,253.5 318.2,259.9 323,263.1 C327.8,266.2 334.2,264.9 337.4,260.1 C340.6,255.3 339.2,248.8 334.4,245.7 C334.4,245.7 334.4,245.7 334.4,245.7 z" fill="#FFFFFF"/>
    <path d="M102.6,321.9 C98.8,319.4 93.8,320.5 91.3,324.2 C88.8,328 89.9,333 93.6,335.5 C97.4,338 102.4,336.9 104.9,333.2 C104.9,333.2 104.9,333.2 104.9,333.2 C107.5,329.5 106.4,324.4 102.6,321.9 z" fill="#FFFFFF"/>
    <path d="M273.8,321.1 C269.8,323.1 268.2,328.1 270.2,332.1 C272.2,336.1 277.2,337.7 281.2,335.7 C285.2,333.7 286.8,328.8 284.8,324.8 C282.8,320.7 277.9,319 273.8,321.1 C273.9,321.1 273.8,321.1 273.8,321.1 z" fill="#FFFFFF"/>
    <path d="M179,238.7 C186.6,227 183.4,211.4 171.7,203.7 C160,196.1 144.4,199.3 136.7,211 C129,222.7 132.3,238.3 144,246 C148.1,248.7 152.9,250.1 157.8,250.1 C166.4,250.2 174.3,245.9 179,238.7 z" fill="#FFFFFF"/>
    <path d="M128.5,277.4 C122.7,273.6 114.8,275.2 111,281 C107.2,286.8 108.8,294.7 114.6,298.5 C120.4,302.3 128.3,300.7 132.1,294.9 C132.1,294.9 132.1,294.9 132.1,294.9 C136,289.1 134.4,281.2 128.5,277.4 z" fill="#FFFFFF"/>
    <path d="M187.4,325.7 C181.7,325.4 176.8,329.8 176.4,335.5 C176,341.2 180.5,346.1 186.2,346.5 C191.9,346.8 196.8,342.5 197.2,336.8 C197.5,331 193.1,326.1 187.4,325.7 C187.4,325.7 187.4,325.7 187.4,325.7 z" fill="#FFFFFF"/>
    <path d="M187.5,260.4 C179.3,259.9 172.3,266.2 171.9,274.4 C171.4,282.6 177.7,289.6 185.9,290 C194.1,290.4 201.1,284.2 201.5,276 C202,267.9 195.7,260.8 187.5,260.4 C187.5,260.4 187.5,260.4 187.5,260.4 z" fill="#FFFFFF"/>
    <path d="M248.2,276.4 C242,279.6 239.5,287.2 242.7,293.4 C245.9,299.6 253.5,302.1 259.7,298.9 C265.9,295.8 268.4,288.2 265.3,282 C262.1,275.8 254.5,273.2 248.2,276.4 C248.2,276.4 248.2,276.4 248.2,276.4 z" fill="#FFFFFF"/>
  </g>
</svg>
